<?xml version="1.0" encoding="UTF-8"?>
<svg xmlns="http://www.w3.org/2000/svg" viewBox="0 0 445 461" width="445" height="461">
<path d="M0 0 C0.885585937500025 0.6935156250000034 1.7711718749999932 1.3870312499999997 2.68359375 2.1015625 C13.179221141385256 10.47978465567762 23.549287885597494 19.522564637603736 32 30 C32.909958151449416 31.097820479490565 33.82013592552772 32.19545893625508 34.73046875 33.29296875 C67.70721708117333 73.38172373286739 85.53001384552175 122.2916761002351 85.3125 174.1875 C85.31158859252929 174.63945739746094 85.31158859252929 174.63945739746094 85.30697631835938 176.9266357421875 C85.26201496108371 190.17134358121282 84.80845086093854 203.01367899144748 82 216 C81.83371093749997 216.826611328125 81.667421875 217.65322265625002 81.49609375 218.5048828125 C69.85716841496628 275.81581330482356 35.54060609770937 326.4329439831373 -13 359 C-40.01795741585329 376.41690337648026 -69.3455204309501 387.6089365396973 -101 393 C-101.75313476562496 393.1313232421875 -102.50626953125004 393.262646484375 -103.2822265625 393.39794921875 C-158.12681397746059 402.4877192854322 -218.05628129906407 387.1577431843003 -263 355 C-273.26908454558196 347.36987202776623 -282.75486622001483 338.82668359475247 -292 330 C-292.6741796875 329.3670703125 -293.348359375 328.734140625 -294.04296875 328.08203125 C-322.63302706203694 300.53874852833513 -342.3088567034021 260.69832199304676 -350.75 222.3125 C-350.94859619140624 221.41152587890628 -351.1471923828125 220.5105517578125 -351.351806640625 219.582275390625 C-354.4560646505501 204.77622765763317 -355.37371304204333 190.44900509036256 -355.3125 175.375 C-355.3106771850586 174.44491119384764 -355.30885437011716 173.51482238769532 -355.3069763183594 172.55654907226563 C-355.2627086621924 159.1538312446923 -354.8700411945714 146.13778857066242 -352 133 C-351.8283935546875 132.15888671875 -351.656787109375 131.3177734375 -351.47998046875 130.451171875 C-343.5449372230512 91.9034550889242 -325.7211144122282 56.16774314553851 -299.03515625 27.22265625 C-297.1935236584173 25.21135309335787 -295.4391381048292 23.151803281663746 -293.6875 21.0625 C-279.5393191505956 4.948398804778606 -261.45817268699943 -7.379583334332743 -243 -18 C-242.37979980468748 -18.364321289062502 -241.75959960937502 -18.728642578125005 -241.12060546875 -19.10400390625 C-166.97661735717912 -62.42751327443138 -66.59360558299903 -53.08324819134022 0 0 Z M-216.25 48.6875 C-226.61697000203924 59.75551510463616 -231.6885921948541 73.95099171772017 -231.470703125 89.027099609375 C-230.33926449557123 113.87361227744282 -211.93435935067671 129.21529239535852 -195.569580078125 145.591552734375 C-194.02116774008311 147.14460175981293 -192.4729502308171 148.69784505280825 -190.92491149902344 150.2512664794922 C-186.74587125157078 154.44333902742008 -182.56357734263815 158.6321499333666 -178.38024735450745 162.81994128227234 C-175.76471085206404 165.4384195696052 -173.14975779409428 168.05747916579404 -170.53497886657715 170.67671394348145 C-162.34670694827605 178.87862810129013 -154.15645948297544 187.07856177554748 -145.96330052614212 195.2755941748619 C-137.4581945258049 203.78474414074094 -128.95720335016114 212.2979474628503 -120.463134765625 220.818115234375 C-112.21633586834142 229.0901692915903 -103.96438609691958 237.35703919327307 -95.70570486783981 245.61723095178604 C-91.34025957202937 249.9837244838327 -86.9772809996075 254.35261682659842 -82.62024879455566 258.72750663757324 C-78.52853936207202 262.83566380634437 -74.42976790178221 266.93663966968484 -70.3254337310791 271.03218269348145 C-68.82079983121997 272.53604482699893 -67.31872983481458 274.0424772104588 -65.81942367553711 275.55165100097656 C-63.772899054150116 277.610853649567 -61.71734150292434 279.66059804486827 -59.65925598144531 281.70823669433594 C-59.06810227692131 282.3074468034506 -58.47694857239719 282.9066569125652 -57.86788111925125 283.52402490377426 C-53.68093519523404 287.6614150014474 -49.19082570840959 291.4246024464408 -43 291.4375 C-38.75369376764024 291.2588790877401 -36.2393138886452 289.78731660185747 -33 287 C-29.849492059143756 283.3244074023344 -29.62879216007991 280.0329878323129 -29.50390625 275.37890625 C-30.80924831180505 269.1194313237067 -36.22084517503862 264.50468705046205 -40.604248046875 260.1821594238281 C-41.26637896537784 259.5211419188976 -41.92850988388062 258.8601244139671 -42.61070537567139 258.1790760755539 C-44.823001286380986 255.97283564862778 -47.04235608571099 253.77383678023284 -49.26171875 251.57470703125 C-50.85231650398214 249.9912242758806 -52.4424434894064 248.40726851681995 -54.032135009765625 246.8228759765625 C-57.452815833255954 243.4152840296627 -60.87648116562252 240.0107291911247 -64.30239868164063 236.60840225219727 C-69.72054193530425 231.22687325177594 -75.12996016215686 225.8366319217812 -80.537841796875 220.44479370117188 C-88.12140372084599 212.88504159462832 -95.70702617564336 205.32737015456587 -103.2958984375 197.77294921875 C-103.77706678271295 197.29396111831068 -104.25823512792587 196.81497301787138 -104.75398433208466 196.32147012650967 C-111.58227960374029 189.52439483088833 -118.41354991690505 182.73031730508816 -125.24601566791534 175.93743453919888 C-125.48659984052182 175.69824368007482 -125.48659984052182 175.69824368007482 -126.7041015625 174.48779296875 C-126.94439195096493 174.24889611013234 -126.94439195096493 174.24889611013234 -128.16040694713593 173.03993321955204 C-136.18187482235012 165.0645824474045 -144.19545516412683 157.08136999501733 -152.20298862457275 149.09202468395233 C-157.57605571927274 143.73203305727426 -162.95800762728737 138.38117713999625 -168.3467254638672 133.03692269325256 C-171.6987664610252 129.70836561875927 -175.04239124294753 126.37145309741311 -178.38370895385742 123.03213500976563 C-179.93301429871707 121.4871193669724 -181.48575714736575 119.94554182960263 -183.04219436645508 118.40771102905273 C-185.16943478740023 116.30491900503898 -187.28391073819859 114.19004894716531 -189.395751953125 112.07180786132813 C-190.01170573234558 111.4688696873188 -190.62765951156615 110.86593151330948 -191.26227855682373 110.2447224855423 C-197.57784845904663 103.85455052101008 -201.0619314969001 96.92184174350189 -201.3125 87.875 C-201.21594392884347 79.82866073695584 -198.49805806823724 72.48674810216187 -192.9296875 66.5859375 C-175.10879787756556 51.93961930828263 -145.62183428814018 49.63734884808069 -123.584716796875 51.445556640625 C-92.85291911740308 54.54721785870797 -61.99026149999719 68.92793340736941 -41.8125 92.75390625 C-24.665715816841214 114.00261509766443 -13.93841442734697 137.99642551614545 -11.770263671875 165.29296875 C-11.240687124887131 171.16345734665072 -9.795666263650219 175.3357239507632 -5.4375 179.375 C-0.8384645662031858 181.54908947779487 2.9980306718071574 181.9500493691535 8 181 C11.899459322729967 178.97835408063386 14.348245498750657 176.04343522704025 16 172 C20.07033656305174 143.19047497580257 4.083759608892819 108.29463550796828 -12.4375 85.75 C-16.702553006666847 80.24764492655265 -21.215778906956302 75.05473440202033 -26 70 C-26.8701171875 69.053828125 -27.740234375 68.10765624999999 -28.63671875 67.1328125 C-49.040875123978594 45.44120457661168 -76.30684221497017 32.514379336137225 -105 26 C-106.0209375 25.764101562500002 -107.041875 25.528203125000005 -108.09375 25.28515625 C-142.55456779406376 18.501920563524806 -189.49087054369338 24.10761782896077 -216.25 48.6875 Z M-278.375 127.375 C-281.4167002685908 132.2885158184928 -282.50883891838953 136.17048006457134 -281.53125 141.98046875 C-280.21122589596735 146.99850155724192 -278.0955347744035 150.62542330246862 -273.625 153.375 C-267.36144041160713 156.18280257410714 -263.4845706443706 156.38499946731136 -257.11328125 154.0078125 C-252.67535944779934 151.89139138176012 -250.53331486212892 148.9244124276901 -248.125 144.75 C-246.33224410331388 138.77414701104624 -246.86194670650735 134.23395646500404 -249.6875 128.6875 C-253.73102660200635 123.98826638145209 -257.9872881660944 121.29536390528486 -264.1875 120.6875 C-270.0507815705355 121.1680968500439 -274.22066705434696 123.22066705434696 -278.375 127.375 Z M-279 190 C-282.2997512195034 193.90760012835923 -283.53906600509526 196.95367067915976 -284 202 C-283.58916309812554 204.71435691031536 -283.10545990116 207.22788834416895 -282.4375 209.875 C-282.254775390625 210.61677490234376 -282.07205078125 211.35854980468753 -281.8837890625 212.122802734375 C-275.40431355154976 237.37936988098397 -262.49824978437545 259.79810464104025 -245 279 C-244.14921875 279.9345703125 -243.2984375 280.869140625 -242.421875 281.83203125 C-216.96862821284697 308.4664915856587 -179.5994075965076 325.3487586163533 -142.73828125 326.30078125 C-140.26309267509177 326.3200402154362 -137.78773858587562 326.32360549856463 -135.3125 326.3125 C-134.00321533203126 326.3075854492188 -132.6939306640625 326.3026708984375 -131.344970703125 326.297607421875 C-92.46932511779687 325.8304960231974 -92.46932511779687 325.8304960231974 -82.291015625 316.419921875 C-81.86498046874999 315.95134765625 -81.43894531249998 315.4827734375 -81 315 C-83.929344742951 312.01271903057955 -86.86980171983464 309.0366229757583 -89.8125 306.0625 C-90.64587890625 305.21236328125 -91.47925781250001 304.3622265625 -92.337890625 303.486328125 C-93.14033203125001 302.67744140625 -93.94277343750002 301.8685546875 -94.76953125 301.03515625 C-95.50792236328124 300.2862915039062 -96.24631347656248 299.5374267578125 -97.007080078125 298.765869140625 C-100.06776623799612 296.0538829842673 -102.83152289061735 295.78976081695345 -106.814208984375 295.832763671875 C-109.3961492042007 296.0303096397719 -111.86639512551267 296.5034764309304 -114.41015625 296.98828125 C-146.10018204931072 302.3664338888734 -179.47961124615324 295.0081402160033 -205.87109375 276.7021484375 C-231.17525551647486 258.4194903324412 -248.46323356156563 233.21976924497227 -255.478759765625 202.77392578125 C-256.86117994343306 196.8631414765614 -257.9511149023441 192.3969809721896 -263.14453125 188.88671875 C-269.0839469972226 186.0483032244852 -273.4142624124929 186.73287046768453 -279 190 Z M-18.3125 214.625 C-21.797666435182407 219.53004905692336 -21.577309229985985 224.11307207732614 -21 230 C-19.287780316553267 235.3616936373075 -15.851300859474748 238.31630165220542 -11 241 C-6.065581511578387 242.64480616280719 -1.735895006827036 242.59020430232118 3.125 240.9375 C7.643469210132082 237.8924446627371 11.260261944144418 234.21921416756675 13 229 C13.538315949137825 222.64787180017368 12.641471142424962 218.29775317817308 9 213 C3.8849214828698564 208.13443750809574 -0.44627119806142446 207.64669547438587 -7.2734375 207.71875 C-12.402304497936314 208.24780218316823 -15.027978702504868 210.89662447311366 -18.3125 214.625 Z " fill="#1272F5" transform="translate(359,56)"/>
</svg>
