<svg viewBox="0 0 400 300" fill="none" xmlns="http://www.w3.org/2000/svg"><path fill-rule="evenodd" clip-rule="evenodd" d="M228.396 168.623c-34.168 0-59.033 25.337-59.033 53.225h-43.815c0-55.101 47.612-97.04 102.848-97.04 55.237 0 102.849 41.939 102.849 97.04H287.43c0-27.888-24.865-53.225-59.034-53.225Z" fill="#2F9BFF"/><path fill-rule="evenodd" clip-rule="evenodd" d="M117.376 218.094h213.866v35.704a9.375 9.375 0 0 1-9.375 9.375H126.751a9.375 9.375 0 0 1-9.375-9.375v-35.704Zm60.528 18.675a3.652 3.652 0 0 1 7.303 0v15.238a3.652 3.652 0 0 1-7.303 0v-15.238Zm40.159-3.651a3.652 3.652 0 0 0-3.651 3.651v15.238a3.652 3.652 0 0 0 7.302 0v-15.238a3.65 3.65 0 0 0-3.651-3.651Zm32.862 5.823a5.162 5.162 0 1 1 10.324 0v11.721a5.162 5.162 0 1 1-10.324 0v-11.721Zm41.88-5.162a5.367 5.367 0 0 0-5.367 5.367v11.311a5.367 5.367 0 0 0 10.735 0v-11.311a5.368 5.368 0 0 0-5.368-5.367Z" fill="#2F9BFF"/><g filter="url(#a)"><path d="M77.36 60.291c0-9.773 7.923-17.696 17.696-17.696h118.408c9.773 0 17.696 7.923 17.696 17.696v185.188c0 9.774-7.923 17.696-17.696 17.696H95.056c-9.773 0-17.696-7.922-17.696-17.696V60.291Z" fill="#B7D5FF" fill-opacity=".3"/></g><g filter="url(#b)"><rect x="98.095" y="153.171" width="110.575" height="13.822" rx="6.911" fill="#fff"/></g><g filter="url(#c)"><rect x="98.095" y="187.726" width="62.198" height="13.822" rx="6.911" fill="#fff"/></g><g filter="url(#d)"><rect x="98.095" y="84.061" width="110.575" height="48.376" rx="6.911" fill="#fff"/></g><defs><filter id="a" x="42.806" y="8.041" width="222.909" height="289.689" filterUnits="userSpaceOnUse" color-interpolation-filters="sRGB"><feFlood flood-opacity="0" result="BackgroundImageFix"/><feGaussianBlur in="BackgroundImage" stdDeviation="17.277"/><feComposite in2="SourceAlpha" operator="in" result="effect1_backgroundBlur_35_2167"/><feBlend in="SourceGraphic" in2="effect1_backgroundBlur_35_2167" result="shape"/><feColorMatrix in="SourceAlpha" values="0 0 0 0 0 0 0 0 0 0 0 0 0 0 0 0 0 0 127 0" result="hardAlpha"/><feOffset dx="5.529" dy="13.822"/><feGaussianBlur stdDeviation="9.117"/><feComposite in2="hardAlpha" operator="arithmetic" k2="-1" k3="1"/><feColorMatrix values="0 0 0 0 1 0 0 0 0 1 0 0 0 0 1 0 0 0 0.25 0"/><feBlend in2="shape" result="effect2_innerShadow_35_2167"/><feColorMatrix in="SourceAlpha" values="0 0 0 0 0 0 0 0 0 0 0 0 0 0 0 0 0 0 127 0" result="hardAlpha"/><feOffset dy="3.455"/><feGaussianBlur stdDeviation="3.455"/><feComposite in2="hardAlpha" operator="arithmetic" k2="-1" k3="1"/><feColorMatrix values="0 0 0 0 1 0 0 0 0 1 0 0 0 0 1 0 0 0 0.2 0"/><feBlend in2="effect2_innerShadow_35_2167" result="effect3_innerShadow_35_2167"/><feColorMatrix in="SourceAlpha" values="0 0 0 0 0 0 0 0 0 0 0 0 0 0 0 0 0 0 127 0" result="hardAlpha"/><feOffset dy="-3.455"/><feGaussianBlur stdDeviation="3.455"/><feComposite in2="hardAlpha" operator="arithmetic" k2="-1" k3="1"/><feColorMatrix values="0 0 0 0 0.103594 0 0 0 0 0.52793 0 0 0 0 0.920833 0 0 0 0.16 0"/><feBlend in2="effect3_innerShadow_35_2167" result="effect4_innerShadow_35_2167"/></filter><filter id="b" x="77.362" y="139.349" width="152.04" height="55.287" filterUnits="userSpaceOnUse" color-interpolation-filters="sRGB"><feFlood flood-opacity="0" result="BackgroundImageFix"/><feColorMatrix in="SourceAlpha" values="0 0 0 0 0 0 0 0 0 0 0 0 0 0 0 0 0 0 127 0" result="hardAlpha"/><feOffset dy="6.911"/><feGaussianBlur stdDeviation="10.366"/><feColorMatrix values="0 0 0 0 0.184314 0 0 0 0 0.607843 0 0 0 0 1 0 0 0 0.4 0"/><feBlend in2="BackgroundImageFix" result="effect1_dropShadow_35_2167"/><feBlend in="SourceGraphic" in2="effect1_dropShadow_35_2167" result="shape"/></filter><filter id="c" x="77.362" y="173.904" width="103.664" height="55.287" filterUnits="userSpaceOnUse" color-interpolation-filters="sRGB"><feFlood flood-opacity="0" result="BackgroundImageFix"/><feColorMatrix in="SourceAlpha" values="0 0 0 0 0 0 0 0 0 0 0 0 0 0 0 0 0 0 127 0" result="hardAlpha"/><feOffset dy="6.911"/><feGaussianBlur stdDeviation="10.366"/><feColorMatrix values="0 0 0 0 0.184314 0 0 0 0 0.607843 0 0 0 0 1 0 0 0 0.4 0"/><feBlend in2="BackgroundImageFix" result="effect1_dropShadow_35_2167"/><feBlend in="SourceGraphic" in2="effect1_dropShadow_35_2167" result="shape"/></filter><filter id="d" x="77.362" y="70.239" width="152.04" height="89.842" filterUnits="userSpaceOnUse" color-interpolation-filters="sRGB"><feFlood flood-opacity="0" result="BackgroundImageFix"/><feColorMatrix in="SourceAlpha" values="0 0 0 0 0 0 0 0 0 0 0 0 0 0 0 0 0 0 127 0" result="hardAlpha"/><feOffset dy="6.911"/><feGaussianBlur stdDeviation="10.366"/><feColorMatrix values="0 0 0 0 0.184314 0 0 0 0 0.607843 0 0 0 0 1 0 0 0 0.4 0"/><feBlend in2="BackgroundImageFix" result="effect1_dropShadow_35_2167"/><feBlend in="SourceGraphic" in2="effect1_dropShadow_35_2167" result="shape"/></filter></defs></svg>