<svg viewBox="0 0 400 300" fill="none" xmlns="http://www.w3.org/2000/svg"><path d="M75 62.5c0-13.807 11.193-25 25-25h162.853c13.807 0 25 11.193 25 25v65.468H75V62.5Z" fill="#2F9BFF"/><g filter="url(#a)"><path d="M75 93.75h212.5v125c0 13.807-11.193 25-25 25H100c-13.807 0-25-11.193-25-25v-125Z" fill="#88BAFF" fill-opacity=".3"/></g><path d="M260.736 184.25c-4.701-1.314-9.027 3.028-7.695 7.724l15.348 54.121c1.296 4.57 7.015 6.081 10.399 2.747l6.99-6.887a6.25 6.25 0 0 1 8.906.135l9.141 9.57a6.25 6.25 0 0 0 8.906.135l7.885-7.77a6.25 6.25 0 0 0 .133-8.769l-9.535-9.982a6.25 6.25 0 0 1-.001-8.634l6.592-6.901c3.259-3.412 1.706-9.067-2.838-10.336l-54.231-15.153Z" fill="#2F9BFF"/><g filter="url(#b)"><path d="M100 143.75c0-6.904 5.596-12.5 12.5-12.5h45.267c6.903 0 12.5 5.596 12.5 12.5v26.777c0 6.903-5.597 12.5-12.5 12.5H112.5c-6.904 0-12.5-5.597-12.5-12.5V143.75Z" fill="#fff"/></g><g filter="url(#c)"><rect x="181.25" y="137.5" width="83.042" height="12.944" rx="6.472" fill="#fff"/></g><g filter="url(#d)"><rect x="181.25" y="163.391" width="51.103" height="12.944" rx="6.472" fill="#fff"/></g><defs><filter id="a" x="43.75" y="62.5" width="275" height="212.5" filterUnits="userSpaceOnUse" color-interpolation-filters="sRGB"><feFlood flood-opacity="0" result="BackgroundImageFix"/><feGaussianBlur in="BackgroundImage" stdDeviation="15.625"/><feComposite in2="SourceAlpha" operator="in" result="effect1_backgroundBlur_35_2160"/><feBlend in="SourceGraphic" in2="effect1_backgroundBlur_35_2160" result="shape"/><feColorMatrix in="SourceAlpha" values="0 0 0 0 0 0 0 0 0 0 0 0 0 0 0 0 0 0 127 0" result="hardAlpha"/><feOffset dx="5" dy="12.5"/><feGaussianBlur stdDeviation="8.245"/><feComposite in2="hardAlpha" operator="arithmetic" k2="-1" k3="1"/><feColorMatrix values="0 0 0 0 1 0 0 0 0 1 0 0 0 0 1 0 0 0 0.25 0"/><feBlend in2="shape" result="effect2_innerShadow_35_2160"/><feColorMatrix in="SourceAlpha" values="0 0 0 0 0 0 0 0 0 0 0 0 0 0 0 0 0 0 127 0" result="hardAlpha"/><feOffset dy="3.125"/><feGaussianBlur stdDeviation="3.125"/><feComposite in2="hardAlpha" operator="arithmetic" k2="-1" k3="1"/><feColorMatrix values="0 0 0 0 1 0 0 0 0 1 0 0 0 0 1 0 0 0 0.2 0"/><feBlend in2="effect2_innerShadow_35_2160" result="effect3_innerShadow_35_2160"/><feColorMatrix in="SourceAlpha" values="0 0 0 0 0 0 0 0 0 0 0 0 0 0 0 0 0 0 127 0" result="hardAlpha"/><feOffset dy="-3.125"/><feGaussianBlur stdDeviation="3.125"/><feComposite in2="hardAlpha" operator="arithmetic" k2="-1" k3="1"/><feColorMatrix values="0 0 0 0 0.103594 0 0 0 0 0.52793 0 0 0 0 0.920833 0 0 0 0.16 0"/><feBlend in2="effect3_innerShadow_35_2160" result="effect4_innerShadow_35_2160"/></filter><filter id="b" x="89.853" y="121.103" width="90.561" height="74.424" filterUnits="userSpaceOnUse" color-interpolation-filters="sRGB"><feFlood flood-opacity="0" result="BackgroundImageFix"/><feGaussianBlur in="BackgroundImage" stdDeviation="5.074"/><feComposite in2="SourceAlpha" operator="in" result="effect1_backgroundBlur_35_2160"/><feColorMatrix in="SourceAlpha" values="0 0 0 0 0 0 0 0 0 0 0 0 0 0 0 0 0 0 127 0" result="hardAlpha"/><feOffset dy="6.25"/><feColorMatrix values="0 0 0 0 0.184314 0 0 0 0 0.607843 0 0 0 0 1 0 0 0 0.4 0"/><feBlend in2="effect1_backgroundBlur_35_2160" result="effect2_dropShadow_35_2160"/><feBlend in="SourceGraphic" in2="effect2_dropShadow_35_2160" result="shape"/><feColorMatrix in="SourceAlpha" values="0 0 0 0 0 0 0 0 0 0 0 0 0 0 0 0 0 0 127 0" result="hardAlpha"/><feOffset dx="5" dy="12.5"/><feGaussianBlur stdDeviation="8.245"/><feComposite in2="hardAlpha" operator="arithmetic" k2="-1" k3="1"/><feColorMatrix values="0 0 0 0 1 0 0 0 0 1 0 0 0 0 1 0 0 0 0.25 0"/><feBlend in2="shape" result="effect3_innerShadow_35_2160"/></filter><filter id="c" x="171.103" y="127.353" width="103.337" height="35.592" filterUnits="userSpaceOnUse" color-interpolation-filters="sRGB"><feFlood flood-opacity="0" result="BackgroundImageFix"/><feGaussianBlur in="BackgroundImage" stdDeviation="5.074"/><feComposite in2="SourceAlpha" operator="in" result="effect1_backgroundBlur_35_2160"/><feColorMatrix in="SourceAlpha" values="0 0 0 0 0 0 0 0 0 0 0 0 0 0 0 0 0 0 127 0" result="hardAlpha"/><feOffset dy="6.25"/><feColorMatrix values="0 0 0 0 0.184314 0 0 0 0 0.607843 0 0 0 0 1 0 0 0 0.4 0"/><feBlend in2="effect1_backgroundBlur_35_2160" result="effect2_dropShadow_35_2160"/><feBlend in="SourceGraphic" in2="effect2_dropShadow_35_2160" result="shape"/><feColorMatrix in="SourceAlpha" values="0 0 0 0 0 0 0 0 0 0 0 0 0 0 0 0 0 0 127 0" result="hardAlpha"/><feOffset dx="5" dy="12.5"/><feGaussianBlur stdDeviation="8.245"/><feComposite in2="hardAlpha" operator="arithmetic" k2="-1" k3="1"/><feColorMatrix values="0 0 0 0 1 0 0 0 0 1 0 0 0 0 1 0 0 0 0.25 0"/><feBlend in2="shape" result="effect3_innerShadow_35_2160"/></filter><filter id="d" x="171.103" y="153.244" width="71.398" height="35.592" filterUnits="userSpaceOnUse" color-interpolation-filters="sRGB"><feFlood flood-opacity="0" result="BackgroundImageFix"/><feGaussianBlur in="BackgroundImage" stdDeviation="5.074"/><feComposite in2="SourceAlpha" operator="in" result="effect1_backgroundBlur_35_2160"/><feColorMatrix in="SourceAlpha" values="0 0 0 0 0 0 0 0 0 0 0 0 0 0 0 0 0 0 127 0" result="hardAlpha"/><feOffset dy="6.25"/><feColorMatrix values="0 0 0 0 0.184314 0 0 0 0 0.607843 0 0 0 0 1 0 0 0 0.4 0"/><feBlend in2="effect1_backgroundBlur_35_2160" result="effect2_dropShadow_35_2160"/><feBlend in="SourceGraphic" in2="effect2_dropShadow_35_2160" result="shape"/><feColorMatrix in="SourceAlpha" values="0 0 0 0 0 0 0 0 0 0 0 0 0 0 0 0 0 0 127 0" result="hardAlpha"/><feOffset dx="5" dy="12.5"/><feGaussianBlur stdDeviation="8.245"/><feComposite in2="hardAlpha" operator="arithmetic" k2="-1" k3="1"/><feColorMatrix values="0 0 0 0 1 0 0 0 0 1 0 0 0 0 1 0 0 0 0.25 0"/><feBlend in2="shape" result="effect3_innerShadow_35_2160"/></filter></defs></svg>