<svg viewBox="0 0 400 300" fill="none" xmlns="http://www.w3.org/2000/svg"><path d="M326.819 119.123c0 8.173-1.422 16.702-4.266 26.296-1.423 4.975-4.267 11.727-4.623 12.082-5.689 12.082-13.511 24.164-24.178 35.89-8.533 9.239-18.133 18.479-29.511 27.007-18.845 14.569-34.845 22.742-35.556 23.098a5.149 5.149 0 0 1-4.326.127l-.297-.127c-.711-.356-16.711-8.529-35.556-23.098-11.022-8.528-20.978-17.412-29.511-26.651-10.667-11.727-18.845-23.453-24.178-35.535-1.778-3.909-3.911-10.661-4.267-11.727-2.844-7.818-4.622-16.346-4.622-26.651 0-17.057 6.044-33.048 17.422-44.774 11.378-12.082 26.312-18.834 42.667-18.834 15.289 0 29.512 6.041 40.534 16.702 11.023-10.661 25.245-16.702 40.534-16.702 16 0 31.289 6.396 42.667 18.478 10.667 12.082 17.067 27.718 17.067 44.419Z" fill="#2F9BFF"/><g filter="url(#a)"><path d="M188.188 163.635c16.292-11.233 26.967-30.017 26.967-51.331C215.192 77.897 187.295 50 152.888 50c-34.406 0-62.34 27.897-62.34 62.304 0 21.276 10.675 40.098 26.967 51.331-27.898 6.175-48.765 31.059-48.765 60.854 0 6.882 5.579 12.46 12.46 12.46H224.53c6.882 0 12.461-5.578 12.461-12.46 0-29.795-20.868-54.679-48.802-60.854Z" fill="#B7D5FF" fill-opacity=".3"/></g><path d="M152.86 152.582c12.906 0 23.71-9.006 26.469-21.076.754-3.298-2.06-6.076-5.443-6.076h-42.053c-3.383 0-6.196 2.778-5.443 6.076 2.76 12.07 13.563 21.076 26.47 21.076Z" fill="#fff"/><defs><filter id="a" x="37.065" y="18.315" width="231.609" height="250.319" filterUnits="userSpaceOnUse" color-interpolation-filters="sRGB"><feFlood flood-opacity="0" result="BackgroundImageFix"/><feGaussianBlur in="BackgroundImage" stdDeviation="15.842"/><feComposite in2="SourceAlpha" operator="in" result="effect1_backgroundBlur_35_2157"/><feBlend in="SourceGraphic" in2="effect1_backgroundBlur_35_2157" result="shape"/><feColorMatrix in="SourceAlpha" values="0 0 0 0 0 0 0 0 0 0 0 0 0 0 0 0 0 0 127 0" result="hardAlpha"/><feOffset dx="5.07" dy="12.674"/><feGaussianBlur stdDeviation="8.359"/><feComposite in2="hardAlpha" operator="arithmetic" k2="-1" k3="1"/><feColorMatrix values="0 0 0 0 1 0 0 0 0 1 0 0 0 0 1 0 0 0 0.25 0"/><feBlend in2="shape" result="effect2_innerShadow_35_2157"/><feColorMatrix in="SourceAlpha" values="0 0 0 0 0 0 0 0 0 0 0 0 0 0 0 0 0 0 127 0" result="hardAlpha"/><feOffset dy="3.168"/><feGaussianBlur stdDeviation="3.168"/><feComposite in2="hardAlpha" operator="arithmetic" k2="-1" k3="1"/><feColorMatrix values="0 0 0 0 0.770833 0 0 0 0 0.889824 0 0 0 0 1 0 0 0 0.25 0"/><feBlend in2="effect2_innerShadow_35_2157" result="effect3_innerShadow_35_2157"/><feColorMatrix in="SourceAlpha" values="0 0 0 0 0 0 0 0 0 0 0 0 0 0 0 0 0 0 127 0" result="hardAlpha"/><feOffset dy="-3.168"/><feGaussianBlur stdDeviation="9.375"/><feComposite in2="hardAlpha" operator="arithmetic" k2="-1" k3="1"/><feColorMatrix values="0 0 0 0 0.103594 0 0 0 0 0.52793 0 0 0 0 0.920833 0 0 0 0.17 0"/><feBlend in2="effect3_innerShadow_35_2157" result="effect4_innerShadow_35_2157"/></filter></defs></svg>