<svg viewBox="0 0 400 300" fill="none" xmlns="http://www.w3.org/2000/svg"><rect x="81.25" y="50" width="171.311" height="202.459" rx="31.148" fill="#2F9BFF"/><g filter="url(#a)"><path d="M96.82 98.668c0-5.376 4.358-9.733 9.734-9.733H227.25c5.376 0 9.734 4.358 9.734 9.733 0 5.376-4.358 9.734-9.734 9.734H106.554c-5.376 0-9.734-4.358-9.734-9.734Z" fill="#fff"/></g><g filter="url(#b)"><path d="M96.82 145.389c0-5.375 4.358-9.733 9.734-9.733h81.762c5.376 0 9.734 4.358 9.734 9.733 0 5.376-4.358 9.734-9.734 9.734h-81.762c-5.376 0-9.734-4.358-9.734-9.734Z" fill="#fff"/></g><g filter="url(#c)"><path fill-rule="evenodd" clip-rule="evenodd" d="M311.904 126.437c9.123 9.123 9.123 23.914 0 33.037l-85.655 85.656c-9.123 9.123-23.914 9.123-33.037 0l-38.935-38.934c-9.123-9.123-9.123-23.914 0-33.037 9.123-9.123 23.914-9.123 33.037 0l22.416 22.416 69.137-69.138c9.123-9.123 23.914-9.123 33.037 0Z" fill="#B7D5FF" fill-opacity=".3"/></g><defs><filter id="a" x="81.246" y="81.148" width="171.311" height="50.615" filterUnits="userSpaceOnUse" color-interpolation-filters="sRGB"><feFlood flood-opacity="0" result="BackgroundImageFix"/><feColorMatrix in="SourceAlpha" values="0 0 0 0 0 0 0 0 0 0 0 0 0 0 0 0 0 0 127 0" result="hardAlpha"/><feOffset dy="7.787"/><feGaussianBlur stdDeviation="7.787"/><feColorMatrix values="0 0 0 0 0.184314 0 0 0 0 0.607843 0 0 0 0 1 0 0 0 0.3 0"/><feBlend in2="BackgroundImageFix" result="effect1_dropShadow_35_2158"/><feBlend in="SourceGraphic" in2="effect1_dropShadow_35_2158" result="shape"/></filter><filter id="b" x="81.246" y="127.869" width="132.377" height="50.615" filterUnits="userSpaceOnUse" color-interpolation-filters="sRGB"><feFlood flood-opacity="0" result="BackgroundImageFix"/><feColorMatrix in="SourceAlpha" values="0 0 0 0 0 0 0 0 0 0 0 0 0 0 0 0 0 0 127 0" result="hardAlpha"/><feOffset dy="7.787"/><feGaussianBlur stdDeviation="7.787"/><feColorMatrix values="0 0 0 0 0.184314 0 0 0 0 0.607843 0 0 0 0 1 0 0 0 0.3 0"/><feBlend in2="BackgroundImageFix" result="effect1_dropShadow_35_2158"/><feBlend in="SourceGraphic" in2="effect1_dropShadow_35_2158" result="shape"/></filter><filter id="c" x="113.391" y="85.551" width="239.401" height="200.466" filterUnits="userSpaceOnUse" color-interpolation-filters="sRGB"><feFlood flood-opacity="0" result="BackgroundImageFix"/><feGaussianBlur in="BackgroundImage" stdDeviation="17.022"/><feComposite in2="SourceAlpha" operator="in" result="effect1_backgroundBlur_35_2158"/><feBlend in="SourceGraphic" in2="effect1_backgroundBlur_35_2158" result="shape"/><feColorMatrix in="SourceAlpha" values="0 0 0 0 0 0 0 0 0 0 0 0 0 0 0 0 0 0 127 0" result="hardAlpha"/><feOffset dx="5.447" dy="13.618"/><feGaussianBlur stdDeviation="8.982"/><feComposite in2="hardAlpha" operator="arithmetic" k2="-1" k3="1"/><feColorMatrix values="0 0 0 0 1 0 0 0 0 1 0 0 0 0 1 0 0 0 0.25 0"/><feBlend in2="shape" result="effect2_innerShadow_35_2158"/><feColorMatrix in="SourceAlpha" values="0 0 0 0 0 0 0 0 0 0 0 0 0 0 0 0 0 0 127 0" result="hardAlpha"/><feOffset dy="3.404"/><feGaussianBlur stdDeviation="3.404"/><feComposite in2="hardAlpha" operator="arithmetic" k2="-1" k3="1"/><feColorMatrix values="0 0 0 0 1 0 0 0 0 1 0 0 0 0 1 0 0 0 0.2 0"/><feBlend in2="effect2_innerShadow_35_2158" result="effect3_innerShadow_35_2158"/><feColorMatrix in="SourceAlpha" values="0 0 0 0 0 0 0 0 0 0 0 0 0 0 0 0 0 0 127 0" result="hardAlpha"/><feOffset dy="-3.404"/><feGaussianBlur stdDeviation="3.404"/><feComposite in2="hardAlpha" operator="arithmetic" k2="-1" k3="1"/><feColorMatrix values="0 0 0 0 0.103594 0 0 0 0 0.52793 0 0 0 0 0.920833 0 0 0 0.16 0"/><feBlend in2="effect3_innerShadow_35_2158" result="effect4_innerShadow_35_2158"/></filter></defs></svg>