<svg viewBox="0 0 400 300" fill="none" xmlns="http://www.w3.org/2000/svg"><path d="M299.652 232.571V108.398H100.401c-.041 25.18-.035 35.1-.034 124.106 0 13.081 10.604 23.752 23.684 23.752h151.917c13.08 0 23.684-10.604 23.684-23.685Z" fill="#2F9BFF"/><g filter="url(#a)"><path fill-rule="evenodd" clip-rule="evenodd" d="M312.449 96.671c.08 1.214.042 5.008.042 23.246 0 15.523-12.588 28.121-28.121 28.121-15.028 0-27.305-11.791-28.083-26.625-.02-.352-.035-.707-.042-1.063-.232 15.33-12.733 27.688-28.118 27.688-15.029 0-27.306-11.792-28.083-26.627a26.642 26.642 0 0 1-.042-1.061c-.232 15.33-12.733 27.688-28.119 27.688-15.028 0-27.305-11.791-28.082-26.626a27.63 27.63 0 0 1-.043-1.082c-.248 15.241-12.857 27.708-28.118 27.708-14.905 0-27.309-11.906-28.083-26.697a28.104 28.104 0 0 1-.048-1.6 13015.158 13015.158 0 0 0-.009-16.45c-.002-6.288.012-6.823.12-7.338l.058-.27c.018-.084.025-.139.034-.194.104-.663.44-1.29 22.983-53.315a7.764 7.764 0 0 1 7.117-4.674h164.366a7.765 7.765 0 0 1 7.118 4.674c22.526 51.988 22.876 52.625 22.98 53.3.009.058.016.117.036.209l.059.27c.035.169.061.34.078.718Z" fill="#C2DCFF" fill-opacity=".4"/></g><path d="M142.596 209.142c10.053 0 18.231-8.178 18.231-18.23 0-10.053-8.178-18.231-18.231-18.231-10.052 0-18.23 8.178-18.23 18.231 0 10.052 8.178 18.23 18.23 18.23Zm0-28.703c5.775 0 10.474 4.698 10.474 10.473s-4.699 10.473-10.474 10.473-10.473-4.698-10.473-10.473 4.699-10.473 10.473-10.473ZM176.096 209.142a3.879 3.879 0 0 0 3.878-3.879v-5.687h5.688c3.591 0 6.967-1.398 9.506-3.938 8.407-8.409 2.48-22.957-9.506-22.957h-9.566a3.88 3.88 0 0 0-3.879 3.879v28.703a3.88 3.88 0 0 0 3.879 3.879Zm3.878-28.703h5.688a5.693 5.693 0 0 1 5.687 5.686 5.687 5.687 0 0 1-5.687 5.693h-5.688v-11.379ZM214.354 209.143h19.138a3.88 3.88 0 0 0 0-7.758h-15.259v-6.594h9.406a3.879 3.879 0 1 0 0-7.758h-9.406v-6.594h15.259a3.879 3.879 0 1 0 0-7.757h-19.138a3.878 3.878 0 0 0-3.878 3.878v28.703a3.879 3.879 0 0 0 3.878 3.88ZM271.771 172.682a3.88 3.88 0 0 0-3.879 3.879v15.893l-12.031-18.045a3.879 3.879 0 0 0-7.106 2.152v28.702a3.879 3.879 0 1 0 7.758 0V189.37l12.03 18.045a3.878 3.878 0 0 0 7.106-2.152v-28.702a3.878 3.878 0 0 0-3.878-3.879Z" fill="#fff"/><defs><filter id="a" x="57.895" y="7.895" width="284.211" height="169.749" filterUnits="userSpaceOnUse" color-interpolation-filters="sRGB"><feFlood flood-opacity="0" result="BackgroundImageFix"/><feGaussianBlur in="BackgroundImage" stdDeviation="14.803"/><feComposite in2="SourceAlpha" operator="in" result="effect1_backgroundBlur_35_2162"/><feBlend in="SourceGraphic" in2="effect1_backgroundBlur_35_2162" result="shape"/><feColorMatrix in="SourceAlpha" values="0 0 0 0 0 0 0 0 0 0 0 0 0 0 0 0 0 0 127 0" result="hardAlpha"/><feOffset dx="4.737" dy="11.842"/><feGaussianBlur stdDeviation="7.811"/><feComposite in2="hardAlpha" operator="arithmetic" k2="-1" k3="1"/><feColorMatrix values="0 0 0 0 1 0 0 0 0 1 0 0 0 0 1 0 0 0 0.25 0"/><feBlend in2="shape" result="effect2_innerShadow_35_2162"/><feColorMatrix in="SourceAlpha" values="0 0 0 0 0 0 0 0 0 0 0 0 0 0 0 0 0 0 127 0" result="hardAlpha"/><feOffset dy="2.961"/><feGaussianBlur stdDeviation="2.961"/><feComposite in2="hardAlpha" operator="arithmetic" k2="-1" k3="1"/><feColorMatrix values="0 0 0 0 1 0 0 0 0 1 0 0 0 0 1 0 0 0 0.2 0"/><feBlend in2="effect2_innerShadow_35_2162" result="effect3_innerShadow_35_2162"/><feColorMatrix in="SourceAlpha" values="0 0 0 0 0 0 0 0 0 0 0 0 0 0 0 0 0 0 127 0" result="hardAlpha"/><feOffset dy="-2.961"/><feGaussianBlur stdDeviation="2.961"/><feComposite in2="hardAlpha" operator="arithmetic" k2="-1" k3="1"/><feColorMatrix values="0 0 0 0 0.103594 0 0 0 0 0.52793 0 0 0 0 0.920833 0 0 0 0.16 0"/><feBlend in2="effect3_innerShadow_35_2162" result="effect4_innerShadow_35_2162"/></filter></defs></svg>